<svg xmlns="http://www.w3.org/2000/svg" xmlns:xlink="http://www.w3.org/1999/xlink" width="375" viewBox="0 0 375 375" height="375" version="1.0"><defs><g id="e"><path d="M 15.15625 -1.175781 L 15.15625 -12.734375 C 15.15625 -13.042969 15.253906 -13.324219 15.476562 -13.5625 C 15.535156 -13.632812 15.546875 -13.699219 15.519531 -13.785156 C 15.476562 -13.867188 15.421875 -13.910156 15.339844 -13.910156 L 12.386719 -13.910156 L 12.371094 -13.898438 L 12.371094 -13.910156 L 11.992188 -13.910156 C 11.894531 -13.910156 11.824219 -13.867188 11.796875 -13.785156 C 11.753906 -13.699219 11.753906 -13.632812 11.8125 -13.5625 C 11.867188 -13.476562 11.855469 -13.421875 11.796875 -13.378906 L 8.914062 -10.71875 C 8.816406 -10.636719 8.703125 -10.609375 8.59375 -10.609375 C 8.480469 -10.609375 8.382812 -10.636719 8.300781 -10.71875 L 5.375 -13.40625 C 5.316406 -13.449219 5.316406 -13.492188 5.375 -13.546875 C 5.429688 -13.617188 5.445312 -13.699219 5.417969 -13.785156 C 5.375 -13.867188 5.304688 -13.910156 5.207031 -13.910156 L 1.902344 -13.910156 C 1.804688 -13.910156 1.734375 -13.867188 1.707031 -13.785156 C 1.664062 -13.699219 1.664062 -13.632812 1.722656 -13.5625 L 1.734375 -13.546875 C 1.945312 -13.308594 2.058594 -13.03125 2.058594 -12.722656 L 2.058594 -1.191406 C 2.058594 -0.867188 1.945312 -0.585938 1.734375 -0.363281 L 1.722656 -0.351562 C 1.664062 -0.265625 1.664062 -0.195312 1.707031 -0.113281 C 1.734375 -0.0273438 1.804688 0 1.902344 0 L 4.996094 0 C 5.082031 0 5.148438 -0.0273438 5.191406 -0.113281 C 5.21875 -0.195312 5.21875 -0.265625 5.179688 -0.351562 L 5.148438 -0.378906 C 4.925781 -0.601562 4.828125 -0.882812 4.828125 -1.203125 L 4.828125 -9.683594 C 4.828125 -9.769531 4.855469 -9.824219 4.941406 -9.851562 C 5.023438 -9.878906 5.09375 -9.878906 5.164062 -9.824219 L 8.300781 -6.914062 C 8.382812 -6.828125 8.480469 -6.789062 8.605469 -6.789062 C 8.71875 -6.789062 8.832031 -6.828125 8.914062 -6.914062 L 12.050781 -9.824219 C 12.105469 -9.878906 12.175781 -9.878906 12.257812 -9.851562 C 12.34375 -9.824219 12.386719 -9.769531 12.386719 -9.683594 L 12.386719 -1.21875 C 12.386719 -0.910156 12.273438 -0.628906 12.050781 -0.390625 L 12.023438 -0.351562 C 11.964844 -0.265625 11.964844 -0.195312 12.007812 -0.113281 C 12.035156 -0.0273438 12.105469 0 12.203125 0 L 15.339844 0 C 15.421875 0 15.476562 -0.0273438 15.519531 -0.113281 C 15.546875 -0.195312 15.535156 -0.265625 15.476562 -0.351562 C 15.253906 -0.574219 15.15625 -0.855469 15.15625 -1.175781 Z M 15.15625 -1.175781"/></g><g id="f"><path d="M 12.257812 -13.769531 C 12.21875 -13.855469 12.160156 -13.898438 12.089844 -13.898438 L 12.089844 -13.910156 L 8.578125 -13.910156 C 8.480469 -13.910156 8.410156 -13.867188 8.382812 -13.785156 C 8.339844 -13.699219 8.355469 -13.617188 8.425781 -13.5625 C 8.535156 -13.421875 8.550781 -13.28125 8.46875 -13.140625 L 6.691406 -9.992188 C 6.660156 -9.9375 6.605469 -9.921875 6.550781 -9.921875 C 6.492188 -9.921875 6.453125 -9.9375 6.421875 -9.992188 L 4.644531 -13.140625 C 4.5625 -13.296875 4.578125 -13.433594 4.703125 -13.5625 C 4.757812 -13.617188 4.757812 -13.699219 4.730469 -13.785156 C 4.703125 -13.867188 4.632812 -13.910156 4.546875 -13.910156 L 1.023438 -13.910156 L 1.035156 -13.898438 C 0.953125 -13.898438 0.882812 -13.855469 0.855469 -13.769531 C 0.824219 -13.714844 0.824219 -13.671875 0.839844 -13.632812 C 0.855469 -13.574219 0.882812 -13.546875 0.921875 -13.519531 L 0.9375 -13.503906 C 1.121094 -13.363281 1.289062 -13.210938 1.425781 -13.042969 C 1.566406 -12.875 1.707031 -12.695312 1.820312 -12.496094 L 4.714844 -7.390625 C 5.023438 -6.859375 5.179688 -6.285156 5.179688 -5.667969 L 5.179688 -1.191406 C 5.179688 -0.882812 5.066406 -0.601562 4.855469 -0.363281 C 4.773438 -0.28125 4.757812 -0.210938 4.800781 -0.125 C 4.828125 -0.0429688 4.898438 0 5.011719 0 L 8.144531 0 C 8.230469 0 8.300781 -0.0273438 8.328125 -0.113281 C 8.355469 -0.195312 8.355469 -0.265625 8.300781 -0.335938 C 8.0625 -0.585938 7.949219 -0.882812 7.949219 -1.21875 L 7.949219 -5.667969 C 7.949219 -6.269531 8.089844 -6.84375 8.398438 -7.390625 L 11.292969 -12.496094 C 11.519531 -12.890625 11.8125 -13.226562 12.191406 -13.519531 C 12.273438 -13.574219 12.300781 -13.660156 12.257812 -13.769531 Z M 12.257812 -13.769531"/></g><g id="h"><path d="M 5.136719 -3.09375 L 9.726562 -12.707031 C 9.78125 -12.820312 9.796875 -12.929688 9.796875 -13.058594 C 9.78125 -13.167969 9.742188 -13.28125 9.683594 -13.378906 C 9.628906 -13.464844 9.542969 -13.546875 9.445312 -13.601562 C 9.335938 -13.660156 9.222656 -13.699219 9.097656 -13.699219 L 2.027344 -13.699219 C 1.707031 -13.699219 1.425781 -13.800781 1.203125 -14.023438 C 1.121094 -14.09375 1.050781 -14.105469 0.964844 -14.078125 C 0.882812 -14.035156 0.839844 -13.96875 0.839844 -13.867188 L 0.839844 -10.734375 C 0.839844 -10.636719 0.867188 -10.566406 0.953125 -10.539062 C 1.035156 -10.511719 1.105469 -10.523438 1.191406 -10.582031 C 1.441406 -10.804688 1.734375 -10.929688 2.070312 -10.929688 L 5.234375 -10.929688 C 5.359375 -10.929688 5.457031 -10.875 5.527344 -10.761719 C 5.597656 -10.648438 5.613281 -10.523438 5.554688 -10.414062 L 0.964844 -0.785156 C 0.910156 -0.671875 0.882812 -0.546875 0.894531 -0.433594 C 0.894531 -0.320312 0.9375 -0.210938 0.992188 -0.125 C 1.050781 -0.0273438 1.132812 0.0546875 1.246094 0.113281 C 1.34375 0.167969 1.457031 0.195312 1.59375 0.195312 L 8.4375 0.195312 C 8.773438 0.195312 9.070312 0.320312 9.320312 0.546875 C 9.375 0.617188 9.460938 0.628906 9.542969 0.585938 C 9.628906 0.558594 9.671875 0.488281 9.671875 0.40625 L 9.671875 -2.769531 C 9.671875 -2.855469 9.628906 -2.910156 9.542969 -2.953125 C 9.460938 -2.980469 9.375 -2.96875 9.320312 -2.910156 C 9.070312 -2.6875 8.773438 -2.574219 8.4375 -2.574219 L 5.457031 -2.574219 C 5.316406 -2.574219 5.21875 -2.617188 5.148438 -2.730469 C 5.082031 -2.839844 5.082031 -2.953125 5.136719 -3.09375 Z M 5.136719 -3.09375"/></g><g id="i"><path d="M 10.582031 -11.726562 C 10.046875 -12.425781 9.417969 -12.960938 8.71875 -13.335938 C 8.003906 -13.699219 7.261719 -13.898438 6.480469 -13.898438 C 5.695312 -13.898438 4.941406 -13.699219 4.226562 -13.335938 C 3.511719 -12.960938 2.898438 -12.425781 2.363281 -11.726562 C 1.863281 -11.070312 1.484375 -10.328125 1.230469 -9.515625 C 0.964844 -8.703125 0.839844 -7.835938 0.839844 -6.941406 C 0.839844 -6.046875 0.964844 -5.179688 1.230469 -4.367188 C 1.484375 -3.539062 1.863281 -2.8125 2.363281 -2.167969 C 2.898438 -1.46875 3.511719 -0.921875 4.226562 -0.558594 C 4.941406 -0.183594 5.695312 0 6.480469 0 C 7.261719 0 8.003906 -0.183594 8.71875 -0.558594 C 9.417969 -0.921875 10.046875 -1.46875 10.582031 -2.167969 C 11.085938 -2.8125 11.460938 -3.539062 11.726562 -4.367188 C 11.980469 -5.179688 12.121094 -6.046875 12.121094 -6.941406 C 12.121094 -7.835938 11.980469 -8.703125 11.726562 -9.515625 C 11.460938 -10.328125 11.085938 -11.070312 10.582031 -11.726562 Z M 6.480469 -2.769531 C 6.085938 -2.769531 5.710938 -2.882812 5.375 -3.105469 C 5.023438 -3.332031 4.714844 -3.625 4.464844 -4.003906 C 4.199219 -4.378906 3.988281 -4.828125 3.835938 -5.332031 C 3.679688 -5.835938 3.609375 -6.367188 3.609375 -6.941406 C 3.609375 -7.5 3.679688 -8.046875 3.835938 -8.550781 C 3.988281 -9.054688 4.199219 -9.488281 4.464844 -9.878906 C 4.714844 -10.257812 5.023438 -10.566406 5.375 -10.789062 C 5.710938 -11.015625 6.085938 -11.125 6.480469 -11.125 C 6.871094 -11.125 7.234375 -11.015625 7.585938 -10.789062 C 7.921875 -10.566406 8.230469 -10.257812 8.480469 -9.878906 C 8.734375 -9.488281 8.941406 -9.054688 9.097656 -8.550781 C 9.25 -8.046875 9.335938 -7.5 9.335938 -6.941406 C 9.335938 -6.367188 9.25 -5.835938 9.097656 -5.332031 C 8.941406 -4.828125 8.734375 -4.378906 8.480469 -4.003906 C 8.230469 -3.625 7.921875 -3.332031 7.585938 -3.105469 C 7.234375 -2.882812 6.871094 -2.769531 6.480469 -2.769531 Z M 6.480469 -2.769531"/></g><g id="j"><path d="M 10.777344 -11.433594 C 10.328125 -12.230469 9.78125 -12.847656 9.140625 -13.265625 C 8.496094 -13.6875 7.765625 -13.910156 6.984375 -13.910156 L 1.890625 -13.910156 C 1.792969 -13.910156 1.722656 -13.867188 1.695312 -13.785156 C 1.652344 -13.699219 1.664062 -13.617188 1.734375 -13.5625 C 1.988281 -13.28125 2.128906 -12.945312 2.128906 -12.566406 L 2.128906 -1.328125 C 2.128906 -0.953125 1.988281 -0.617188 1.734375 -0.335938 C 1.664062 -0.265625 1.652344 -0.195312 1.695312 -0.113281 C 1.722656 -0.0273438 1.792969 0 1.890625 0 L 6.984375 0 C 7.765625 0 8.496094 -0.210938 9.140625 -0.628906 C 9.78125 -1.050781 10.328125 -1.652344 10.777344 -2.449219 C 11.097656 -3.050781 11.351562 -3.738281 11.53125 -4.507812 C 11.714844 -5.277344 11.8125 -6.085938 11.8125 -6.941406 C 11.8125 -7.78125 11.714844 -8.59375 11.53125 -9.363281 C 11.351562 -10.132812 11.097656 -10.816406 10.777344 -11.433594 Z M 8.339844 -3.792969 C 8.199219 -3.539062 8.0625 -3.34375 7.921875 -3.203125 C 7.78125 -3.066406 7.640625 -2.953125 7.53125 -2.898438 C 7.402344 -2.828125 7.292969 -2.785156 7.195312 -2.785156 C 7.09375 -2.769531 7.027344 -2.769531 6.984375 -2.769531 L 5.417969 -2.769531 C 5.277344 -2.769531 5.148438 -2.8125 5.050781 -2.925781 C 4.941406 -3.023438 4.898438 -3.148438 4.898438 -3.289062 L 4.898438 -10.441406 C 4.898438 -10.621094 4.953125 -10.777344 5.09375 -10.917969 C 5.234375 -11.054688 5.402344 -11.125 5.597656 -11.125 L 6.984375 -11.125 C 7.292969 -11.125 7.585938 -11 7.835938 -10.761719 C 8.089844 -10.511719 8.3125 -10.1875 8.496094 -9.796875 C 8.664062 -9.40625 8.804688 -8.957031 8.902344 -8.453125 C 8.984375 -7.949219 9.039062 -7.445312 9.039062 -6.941406 C 9.039062 -6.324219 8.972656 -5.738281 8.859375 -5.191406 C 8.734375 -4.644531 8.566406 -4.183594 8.339844 -3.792969 Z M 8.339844 -3.792969"/></g><g id="k"><path d="M 4.84375 -1.230469 L 4.84375 -12.679688 C 4.84375 -13.015625 4.953125 -13.308594 5.179688 -13.5625 C 5.21875 -13.632812 5.21875 -13.699219 5.191406 -13.785156 C 5.148438 -13.867188 5.082031 -13.910156 4.996094 -13.910156 L 1.902344 -13.910156 C 1.804688 -13.910156 1.734375 -13.867188 1.707031 -13.785156 C 1.664062 -13.699219 1.664062 -13.632812 1.722656 -13.5625 C 1.945312 -13.308594 2.070312 -13.015625 2.070312 -12.679688 L 2.070312 -1.230469 C 2.070312 -0.894531 1.945312 -0.601562 1.722656 -0.351562 C 1.664062 -0.265625 1.664062 -0.195312 1.707031 -0.113281 C 1.734375 -0.0273438 1.804688 0 1.902344 0 L 4.996094 0 C 5.082031 0 5.148438 -0.0273438 5.191406 -0.113281 C 5.21875 -0.195312 5.21875 -0.265625 5.179688 -0.351562 C 5.066406 -0.460938 4.980469 -0.601562 4.925781 -0.753906 C 4.871094 -0.910156 4.84375 -1.0625 4.84375 -1.230469 Z M 4.84375 -1.230469"/></g><g id="l"><path d="M 12.734375 -0.25 C 12.734375 -0.308594 12.707031 -0.351562 12.664062 -0.378906 C 12.34375 -0.644531 12.132812 -0.980469 12.023438 -1.398438 L 8.675781 -12.960938 C 8.605469 -13.183594 8.648438 -13.394531 8.816406 -13.5625 C 8.859375 -13.632812 8.859375 -13.699219 8.832031 -13.785156 C 8.789062 -13.867188 8.71875 -13.910156 8.636719 -13.910156 L 4.941406 -13.910156 C 4.855469 -13.910156 4.785156 -13.867188 4.746094 -13.785156 C 4.703125 -13.699219 4.703125 -13.632812 4.757812 -13.5625 C 4.925781 -13.394531 4.96875 -13.183594 4.898438 -12.960938 L 1.566406 -1.386719 C 1.457031 -0.992188 1.230469 -0.65625 0.910156 -0.378906 C 0.867188 -0.335938 0.839844 -0.292969 0.839844 -0.25 C 0.824219 -0.183594 0.839844 -0.125 0.882812 -0.0703125 C 0.921875 -0.015625 0.980469 0 1.0625 0 L 4.308594 0 C 4.394531 0 4.464844 -0.0273438 4.492188 -0.113281 C 4.519531 -0.195312 4.519531 -0.265625 4.464844 -0.335938 C 4.296875 -0.503906 4.253906 -0.714844 4.308594 -0.9375 L 4.746094 -2.394531 C 4.785156 -2.546875 4.871094 -2.671875 4.996094 -2.757812 C 5.109375 -2.839844 5.25 -2.898438 5.417969 -2.898438 L 8.171875 -2.898438 C 8.328125 -2.898438 8.46875 -2.839844 8.59375 -2.757812 C 8.703125 -2.671875 8.789062 -2.546875 8.84375 -2.394531 L 9.265625 -0.9375 C 9.320312 -0.714844 9.265625 -0.519531 9.125 -0.351562 L 9.125 -0.335938 C 9.070312 -0.25 9.070312 -0.183594 9.109375 -0.113281 C 9.140625 -0.0273438 9.207031 0 9.308594 0 L 12.527344 0 C 12.59375 0 12.652344 -0.015625 12.695312 -0.0703125 C 12.734375 -0.125 12.75 -0.183594 12.734375 -0.25 Z M 7.695312 -5.667969 L 5.890625 -5.667969 C 5.835938 -5.667969 5.792969 -5.683594 5.765625 -5.722656 C 5.722656 -5.765625 5.710938 -5.820312 5.738281 -5.878906 L 6.648438 -9 C 6.660156 -9.070312 6.703125 -9.109375 6.789062 -9.109375 C 6.871094 -9.109375 6.914062 -9.070312 6.941406 -9 L 7.835938 -5.878906 C 7.851562 -5.820312 7.835938 -5.765625 7.808594 -5.722656 C 7.78125 -5.683594 7.738281 -5.667969 7.695312 -5.667969 Z M 7.695312 -5.667969"/></g><g id="m"><path d="M 9.613281 -14.609375 C 9.375 -14.386719 9.097656 -14.289062 8.789062 -14.289062 L 7.417969 -14.289062 C 6.394531 -14.289062 5.472656 -14.09375 4.632812 -13.714844 C 3.792969 -13.335938 3.078125 -12.777344 2.464844 -12.050781 C 1.929688 -11.40625 1.527344 -10.691406 1.246094 -9.878906 C 0.964844 -9.070312 0.839844 -8.230469 0.839844 -7.332031 C 0.839844 -6.464844 0.980469 -5.613281 1.257812 -4.785156 C 1.539062 -3.945312 1.945312 -3.203125 2.503906 -2.5625 C 3.066406 -1.902344 3.75 -1.371094 4.5625 -0.980469 C 5.375 -0.574219 6.324219 -0.378906 7.417969 -0.378906 L 8.789062 -0.378906 C 9.097656 -0.378906 9.375 -0.265625 9.613281 -0.0546875 C 9.683594 0.015625 9.769531 0.0273438 9.851562 -0.015625 C 9.9375 -0.0429688 9.976562 -0.113281 9.976562 -0.222656 L 9.976562 -3.34375 C 9.976562 -3.429688 9.9375 -3.5 9.851562 -3.539062 C 9.769531 -3.570312 9.699219 -3.554688 9.640625 -3.5 C 9.375 -3.261719 9.082031 -3.148438 8.761719 -3.148438 L 7.417969 -3.148438 C 6.660156 -3.148438 6.03125 -3.289062 5.542969 -3.582031 C 5.050781 -3.863281 4.660156 -4.226562 4.378906 -4.660156 C 4.101562 -5.082031 3.890625 -5.542969 3.777344 -6.019531 C 3.667969 -6.492188 3.609375 -6.941406 3.609375 -7.332031 C 3.609375 -7.894531 3.695312 -8.425781 3.863281 -8.941406 C 4.03125 -9.445312 4.28125 -9.894531 4.589844 -10.273438 C 5.277344 -11.097656 6.214844 -11.519531 7.417969 -11.519531 L 8.761719 -11.519531 C 9.082031 -11.519531 9.375 -11.390625 9.640625 -11.167969 C 9.699219 -11.097656 9.769531 -11.085938 9.851562 -11.125 C 9.9375 -11.152344 9.976562 -11.222656 9.976562 -11.320312 L 9.976562 -14.457031 C 9.976562 -14.539062 9.9375 -14.609375 9.851562 -14.652344 C 9.769531 -14.679688 9.683594 -14.667969 9.613281 -14.609375 Z M 9.613281 -14.609375"/></g><clipPath id="a"><path d="M 168 135 L 175.882812 135 L 175.882812 167 L 168 167 Z M 168 135"/></clipPath><clipPath id="b"><path d="M 137.660156 140.667969 L 171.273438 140.667969 L 171.273438 174.804688 L 137.660156 174.804688 Z M 137.660156 140.667969"/></clipPath><clipPath id="c"><path d="M 141.285156 136.300781 L 175.855469 136.300781 L 175.855469 174.785156 L 141.285156 174.785156 Z M 141.285156 136.300781"/></clipPath><clipPath id="d"><path d="M 139 133.558594 L 171 133.558594 L 171 174 L 139 174 Z M 139 133.558594"/></clipPath></defs><g clip-path="url(#a)"><path fill="#8174BB" d="M 173.175781 163.972656 C 172.921875 164.066406 172.601562 164.078125 172.332031 164.128906 C 172.160156 164.160156 171.839844 164.152344 171.6875 164.246094 C 171.554688 164.328125 171.558594 164.644531 171.535156 164.78125 C 171.472656 165.113281 171.414062 165.441406 171.355469 165.769531 C 171.339844 165.855469 171.324219 166.277344 171.207031 166.308594 C 171.0625 166.34375 171.050781 165.898438 171.039062 165.824219 C 170.984375 165.5 170.933594 165.175781 170.878906 164.855469 C 170.859375 164.730469 170.867188 164.386719 170.773438 164.285156 C 170.722656 164.238281 170.601562 164.234375 170.542969 164.222656 C 170.398438 164.195312 170.257812 164.164062 170.113281 164.136719 C 169.945312 164.101562 169.773438 164.066406 169.605469 164.03125 C 169.527344 164.015625 169.394531 164.011719 169.324219 163.972656 C 169.0625 163.824219 169.503906 163.769531 169.605469 163.746094 C 169.917969 163.683594 170.230469 163.617188 170.542969 163.550781 C 170.726562 163.511719 170.78125 163.5 170.820312 163.3125 C 170.914062 162.804688 171.011719 162.296875 171.105469 161.785156 C 171.144531 161.597656 171.265625 161.800781 171.285156 161.871094 C 171.324219 162.015625 171.347656 162.164062 171.378906 162.308594 C 171.453125 162.636719 171.511719 162.972656 171.59375 163.296875 C 171.648438 163.515625 171.789062 163.496094 172 163.539062 C 172.339844 163.613281 172.679688 163.6875 173.023438 163.757812 C 173.152344 163.785156 173.449219 163.875 173.175781 163.972656 Z M 172.320312 151.890625 C 172.472656 151.753906 172.394531 151.449219 172.230469 151.261719 C 172.066406 151.074219 171.808594 151.007812 171.570312 151.320312 C 171.496094 151.417969 171.457031 151.53125 171.445312 151.648438 C 171.429688 151.761719 171.449219 151.882812 171.511719 151.984375 C 171.664062 152.246094 171.933594 152.222656 172.320312 151.890625 Z M 174.128906 151.734375 C 173.96875 151.539062 173.707031 151.46875 173.46875 151.800781 C 173.320312 152.003906 173.273438 152.28125 173.394531 152.503906 C 173.542969 152.777344 173.8125 152.75 174.207031 152.402344 C 174.28125 152.328125 174.304688 152.210938 174.289062 152.089844 C 174.269531 151.964844 174.210938 151.835938 174.128906 151.734375 Z M 173.511719 148.476562 C 173.253906 148.203125 172.660156 147.917969 172.367188 148.289062 C 172.183594 148.515625 172.28125 148.84375 172.53125 148.972656 C 172.6875 149.050781 173.355469 149.117188 173.480469 149 C 173.617188 148.871094 173.644531 148.613281 173.511719 148.476562 Z M 175.15625 155.230469 C 174.972656 155.203125 174.777344 155.351562 174.660156 155.527344 C 174.542969 155.699219 174.503906 155.917969 174.570312 156.113281 C 174.734375 156.582031 175.375 156.5 175.484375 155.992188 C 175.496094 155.929688 175.769531 155.328125 175.15625 155.230469 Z M 172.175781 155.125 C 171.992188 155.09375 171.796875 155.230469 171.683594 155.394531 C 171.570312 155.554688 171.53125 155.761719 171.601562 155.945312 C 171.769531 156.398438 172.402344 156.335938 172.507812 155.855469 C 172.519531 155.796875 172.78125 155.230469 172.175781 155.125 Z M 174.003906 146.53125 C 174.175781 146.625 174.398438 146.621094 174.558594 146.4375 C 174.566406 146.425781 174.574219 146.417969 174.578125 146.40625 C 174.628906 146.335938 174.667969 146.261719 174.726562 146.199219 C 174.75 146.171875 174.769531 146.140625 174.785156 146.101562 C 174.859375 145.910156 174.789062 145.660156 174.609375 145.570312 C 174.441406 145.488281 174.238281 145.453125 174.066406 145.539062 C 173.894531 145.625 173.769531 145.792969 173.746094 145.992188 C 173.734375 146.117188 173.75 146.226562 173.796875 146.320312 C 173.84375 146.410156 173.917969 146.484375 174.003906 146.53125 Z M 171.3125 142.386719 C 171.371094 142.207031 171.148438 142.035156 170.921875 142.003906 C 170.691406 141.972656 170.453125 142.089844 170.40625 142.417969 C 170.390625 142.519531 170.414062 142.605469 170.453125 142.6875 C 170.496094 142.769531 170.570312 142.835938 170.671875 142.875 C 170.925781 142.964844 171.148438 142.828125 171.3125 142.386719 Z M 174.097656 143.46875 C 174.132812 143.597656 174.199219 143.710938 174.296875 143.796875 C 174.542969 144.007812 174.785156 143.886719 175.003906 143.371094 C 175.085938 143.164062 174.878906 142.855469 174.648438 142.726562 C 174.414062 142.597656 174.152344 142.648438 174.074219 143.078125 C 174.0625 143.140625 174.058594 143.210938 174.066406 143.277344 C 174.070312 143.339844 174.082031 143.40625 174.097656 143.46875 Z M 172.101562 140.402344 C 172.214844 140.484375 172.347656 140.539062 172.488281 140.523438 C 172.664062 140.5 173.253906 140.175781 173.277344 139.988281 C 173.285156 139.886719 173.261719 139.765625 173.191406 139.667969 C 173.125 139.574219 173.03125 139.496094 172.929688 139.472656 C 172.828125 139.449219 172.714844 139.441406 172.597656 139.445312 C 172.476562 139.453125 172.355469 139.480469 172.253906 139.527344 C 172.042969 139.617188 171.898438 139.78125 171.910156 140.027344 C 171.917969 140.183594 171.992188 140.3125 172.101562 140.402344 Z M 171.6875 145.617188 C 171.6875 145.5625 171.71875 145.019531 171.117188 145.152344 C 170.9375 145.191406 170.804688 145.359375 170.757812 145.519531 C 170.710938 145.683594 170.734375 145.855469 170.863281 145.980469 C 171.015625 146.136719 171.234375 146.15625 171.410156 146.082031 C 171.585938 146.007812 171.714844 145.835938 171.6875 145.617188 Z M 169.566406 135.621094 C 169.546875 135.613281 169.480469 135.585938 169.386719 135.554688 C 169.339844 135.539062 169.285156 135.523438 169.230469 135.511719 C 169.171875 135.496094 169.109375 135.488281 169.046875 135.484375 C 169.015625 135.480469 168.984375 135.480469 168.953125 135.480469 C 168.917969 135.484375 168.886719 135.484375 168.855469 135.488281 C 168.789062 135.5 168.738281 135.515625 168.671875 135.542969 C 168.640625 135.554688 168.617188 135.574219 168.589844 135.59375 C 168.578125 135.601562 168.566406 135.613281 168.558594 135.621094 C 168.554688 135.636719 168.550781 135.648438 168.546875 135.660156 C 168.535156 135.714844 168.523438 135.78125 168.507812 135.855469 C 168.507812 135.878906 168.503906 135.902344 168.503906 135.921875 C 168.5 135.933594 168.5 135.945312 168.5 135.957031 C 168.507812 135.96875 168.515625 135.980469 168.523438 135.992188 C 168.550781 136.039062 168.605469 136.089844 168.644531 136.136719 C 168.738281 136.226562 168.847656 136.316406 168.960938 136.386719 C 169.179688 136.523438 169.4375 136.597656 169.671875 136.578125 C 169.964844 136.550781 170.105469 136.382812 170.097656 136.175781 C 170.09375 136.074219 170.046875 135.964844 169.957031 135.867188 C 169.871094 135.765625 169.738281 135.679688 169.566406 135.621094 Z M 169.402344 139.566406 C 169.421875 139.785156 169.289062 139.964844 169.136719 140.058594 C 169.058594 140.105469 168.972656 140.140625 168.898438 140.140625 C 168.820312 140.144531 168.75 140.113281 168.691406 140.054688 C 168.59375 139.953125 168.566406 139.785156 168.597656 139.601562 C 168.628906 139.414062 168.742188 139.253906 168.882812 139.140625 C 169.03125 139.015625 169.234375 139.082031 169.316406 139.230469 C 169.335938 139.257812 169.34375 139.292969 169.347656 139.324219 C 169.355469 139.398438 169.382812 139.46875 169.398438 139.535156 C 169.402344 139.546875 169.402344 139.558594 169.402344 139.566406"/></g><g clip-path="url(#b)"><path fill="#EBCB47" d="M 141.515625 171.632812 C 141.28125 171.605469 141.03125 171.707031 141.03125 172.082031 C 141.03125 172.199219 141.0625 172.3125 141.125 172.402344 C 141.191406 172.492188 141.285156 172.558594 141.394531 172.589844 C 141.675781 172.667969 141.855469 172.464844 141.949219 172.003906 C 141.972656 171.828125 141.753906 171.664062 141.515625 171.632812 Z M 143.574219 170.890625 C 143.496094 170.832031 143.386719 170.792969 143.273438 170.785156 C 143.046875 170.769531 142.800781 170.875 142.785156 171.230469 C 142.773438 171.445312 142.914062 171.636719 143.125 171.6875 C 143.398438 171.746094 143.578125 171.546875 143.6875 171.113281 C 143.703125 171.027344 143.65625 170.949219 143.574219 170.890625 Z M 141.457031 169.347656 C 141.523438 169.191406 141.457031 168.992188 141.285156 168.945312 C 140.953125 168.859375 140.292969 168.855469 140.175781 169.28125 C 140.101562 169.546875 140.324219 169.785156 140.601562 169.765625 C 140.777344 169.757812 141.394531 169.488281 141.457031 169.347656 Z M 146.648438 171.851562 C 146.613281 171.820312 146.449219 171.40625 145.976562 171.800781 C 145.835938 171.921875 145.792969 172.121094 145.824219 172.28125 C 145.847656 172.4375 145.96875 172.546875 146.132812 172.570312 C 146.535156 172.625 146.882812 172.105469 146.648438 171.851562 Z M 143.949219 173.957031 C 143.8125 174.082031 143.789062 174.292969 143.835938 174.464844 C 143.882812 174.632812 144.011719 174.761719 144.1875 174.796875 C 144.609375 174.878906 144.9375 174.332031 144.667969 174.039062 C 144.636719 174.003906 144.410156 173.546875 143.949219 173.957031 Z M 141.1875 167.296875 C 141.375 167.320312 141.582031 167.246094 141.703125 167.074219 C 141.707031 167.0625 141.710938 167.054688 141.71875 167.046875 C 141.75 166.980469 141.773438 166.917969 141.816406 166.859375 C 141.835938 166.832031 141.847656 166.804688 141.855469 166.773438 C 141.902344 166.621094 141.8125 166.457031 141.625 166.433594 C 141.449219 166.40625 141.25 166.417969 141.089844 166.519531 C 140.933594 166.617188 140.832031 166.773438 140.835938 166.941406 C 140.835938 167.148438 141.003906 167.269531 141.1875 167.296875 Z M 138.578125 163.617188 C 138.679688 163.464844 138.550781 163.210938 138.351562 163.074219 C 138.152344 162.941406 137.882812 162.917969 137.71875 163.269531 C 137.667969 163.378906 137.648438 163.496094 137.664062 163.609375 C 137.683594 163.722656 137.738281 163.832031 137.824219 163.910156 C 138.042969 164.113281 138.292969 164.003906 138.578125 163.617188 Z M 141.738281 164.414062 C 141.527344 164.320312 141.261719 164.332031 141.121094 164.644531 C 141.035156 164.835938 141.082031 165.054688 141.269531 165.167969 C 141.5 165.3125 141.742188 165.191406 141.996094 164.839844 C 142.09375 164.699219 141.945312 164.503906 141.738281 164.414062 Z M 140.421875 162.503906 C 140.585938 162.554688 141.257812 162.539062 141.371094 162.4375 C 141.433594 162.382812 141.464844 162.308594 141.464844 162.234375 C 141.464844 162.164062 141.433594 162.089844 141.359375 162.039062 C 141.085938 161.855469 140.480469 161.617188 140.207031 161.941406 C 140.121094 162.042969 140.109375 162.164062 140.152344 162.269531 C 140.195312 162.375 140.292969 162.464844 140.421875 162.503906 Z M 138.128906 166.574219 C 137.953125 166.628906 137.84375 166.832031 137.816406 167.023438 C 137.792969 167.214844 137.867188 167.40625 138.015625 167.523438 C 138.386719 167.804688 138.894531 167.421875 138.757812 167.007812 C 138.738281 166.953125 138.71875 166.390625 138.128906 166.574219 Z M 142.636719 159.082031 C 142.625 159.070312 142.617188 159.058594 142.601562 159.046875 C 142.589844 159.039062 142.574219 159.03125 142.558594 159.019531 C 142.523438 159.003906 142.484375 158.976562 142.425781 158.972656 C 142.371094 158.964844 142.308594 158.945312 142.234375 158.921875 C 142.066406 158.835938 141.886719 158.90625 141.789062 159.015625 C 141.691406 159.121094 141.679688 159.277344 141.769531 159.414062 C 141.992188 159.742188 142.605469 159.660156 142.648438 159.363281 C 142.652344 159.34375 142.699219 159.246094 142.671875 159.152344 C 142.667969 159.125 142.65625 159.105469 142.636719 159.082031 Z M 139.164062 159.683594 C 139.144531 159.710938 139.121094 159.734375 139.09375 159.75 C 139.027344 159.792969 138.976562 159.847656 138.917969 159.898438 C 138.910156 159.90625 138.902344 159.914062 138.894531 159.917969 C 138.710938 160.046875 138.492188 160.027344 138.332031 159.917969 C 138.175781 159.808594 138.085938 159.605469 138.167969 159.390625 C 138.234375 159.210938 138.394531 159.09375 138.582031 159.0625 C 138.773438 159.027344 138.957031 159.109375 139.105469 159.21875 C 139.257812 159.332031 139.269531 159.542969 139.164062 159.683594 Z M 171.140625 140.894531 C 168.910156 140.0625 164.375 141.863281 164.375 141.863281 C 163.695312 145.09375 168.742188 145.769531 168.742188 145.769531 C 172.039062 143.8125 171.140625 140.894531 171.140625 140.894531 Z M 147.5 142.273438 C 147.5 142.273438 142.175781 140.882812 139.792969 141.910156 C 139.792969 141.910156 139.183594 144.90625 143.144531 146.566406 C 143.144531 146.566406 148.707031 145.441406 147.5 142.273438 Z M 165.636719 149.1875 C 165.636719 150.425781 164.707031 151.359375 163.886719 152.183594 C 163.242188 152.832031 162.632812 153.445312 162.613281 154.054688 C 162.570312 155.285156 161.703125 159.238281 159.273438 161.0625 C 158.949219 161.308594 158.597656 161.421875 158.164062 161.421875 C 157.882812 161.421875 157.601562 161.371094 157.304688 161.320312 C 156.980469 161.265625 156.648438 161.210938 156.28125 161.210938 L 156.242188 161.210938 C 155.875 161.214844 155.515625 161.238281 155.164062 161.261719 C 154.800781 161.285156 154.453125 161.308594 154.117188 161.308594 C 153.472656 161.308594 152.644531 161.230469 151.984375 160.617188 C 150.167969 158.945312 149.367188 155.90625 149.445312 154.746094 C 149.503906 153.859375 148.84375 153.328125 148.148438 152.769531 C 147.804688 152.492188 147.480469 152.230469 147.238281 151.921875 C 146.707031 151.234375 145.582031 149.378906 146.664062 146.945312 C 147.1875 145.761719 148.203125 145.121094 149.179688 144.503906 C 150.015625 143.976562 150.800781 143.480469 151.304688 142.671875 C 151.914062 141.691406 153.042969 141.195312 154.65625 141.195312 C 155.160156 141.195312 155.609375 141.242188 155.875 141.273438 C 155.957031 141.28125 156.046875 141.292969 156.089844 141.296875 C 156.660156 141.179688 157.1875 141.121094 157.65625 141.121094 C 159.734375 141.121094 160.429688 142.238281 160.9375 143.050781 C 161.148438 143.390625 161.328125 143.679688 161.546875 143.785156 C 162.734375 144.339844 165.636719 146.921875 165.636719 149.1875"/></g><g clip-path="url(#c)"><path fill="#DAA824" d="M 175.316406 169.179688 C 175.429688 169.347656 175.777344 169.703125 175.789062 169.902344 C 175.8125 170.214844 175.328125 169.792969 175.222656 169.722656 C 175.039062 169.597656 174.832031 169.351562 174.695312 169.574219 C 174.574219 169.777344 174.667969 170.226562 174.503906 170.390625 C 174.277344 170.617188 174.257812 169.917969 174.230469 169.785156 C 174.15625 169.445312 174.054688 169.535156 173.796875 169.707031 C 173.703125 169.765625 173.214844 170.191406 173.117188 170.027344 C 173.046875 169.90625 173.4375 169.410156 173.492188 169.304688 C 173.648438 169.007812 173.523438 169 173.234375 168.878906 C 173.15625 168.84375 172.875 168.78125 172.964844 168.640625 C 173.011719 168.570312 173.25 168.632812 173.308594 168.640625 C 173.390625 168.648438 173.671875 168.734375 173.738281 168.644531 C 173.792969 168.5625 173.664062 168.382812 173.636719 168.320312 C 173.546875 168.128906 173.300781 167.675781 173.675781 167.902344 C 173.890625 168.03125 174.074219 168.367188 174.15625 167.980469 C 174.214844 167.710938 174.21875 167.417969 174.246094 167.140625 C 174.277344 166.847656 174.457031 167.292969 174.464844 167.324219 C 174.519531 167.5 174.546875 167.6875 174.601562 167.863281 C 174.640625 167.992188 174.628906 168.152344 174.804688 168.085938 C 174.902344 168.050781 175.035156 167.8125 175.101562 167.734375 C 175.183594 167.632812 175.320312 167.417969 175.390625 167.644531 C 175.417969 167.722656 175.308594 167.949219 175.289062 168.03125 C 175.257812 168.148438 175.15625 168.34375 175.261719 168.429688 C 175.351562 168.5 175.585938 168.394531 175.691406 168.40625 C 176.136719 168.453125 175.558594 168.667969 175.398438 168.730469 C 175.097656 168.851562 175.15625 168.933594 175.316406 169.179688 Z M 162.238281 154.042969 C 162.199219 155.242188 161.339844 159.046875 159.046875 160.765625 C 158.253906 161.363281 157.417969 160.824219 156.238281 160.835938 C 154.617188 160.855469 153.207031 161.242188 152.234375 160.34375 C 150.472656 158.71875 149.75 155.78125 149.816406 154.773438 C 149.921875 153.207031 148.222656 152.578125 147.535156 151.691406 C 146.84375 150.804688 146.101562 149.132812 147.003906 147.097656 C 147.90625 145.0625 150.453125 144.746094 151.621094 142.867188 C 152.789062 140.988281 155.914062 141.710938 156.132812 141.667969 C 160.488281 140.78125 160.273438 143.597656 161.390625 144.121094 C 162.503906 144.644531 165.265625 147.148438 165.265625 149.1875 C 165.265625 151.222656 162.292969 152.421875 162.238281 154.042969 Z M 168.253906 146.652344 C 168.644531 146.828125 169.042969 146.429688 168.867188 146.039062 C 168.0625 144.25 166.230469 140.796875 163.785156 139.835938 C 163.675781 139.792969 163.6875 139.636719 163.800781 139.613281 L 164.566406 139.453125 C 165.042969 139.355469 164.695312 138.484375 164.695312 138.484375 C 164.695312 138.484375 162.515625 137.460938 161.382812 137.070312 C 160.375 136.722656 158.210938 136.324219 158.210938 136.324219 C 158.210938 136.324219 156.3125 137.226562 155.117188 136.886719 C 154.015625 136.574219 153.773438 136.210938 152.472656 136.417969 C 151.335938 136.59375 150.230469 136.957031 149.160156 137.363281 C 148.214844 137.722656 147.285156 138.128906 146.378906 138.574219 C 145.917969 138.800781 146.550781 139.546875 146.550781 139.546875 L 147.441406 139.644531 C 147.5625 139.660156 147.582031 139.824219 147.46875 139.871094 C 144.960938 140.917969 143.113281 144.570312 142.371094 146.261719 C 142.234375 146.574219 142.554688 146.890625 142.867188 146.75 L 143.085938 146.652344 C 143.191406 146.605469 143.292969 146.71875 143.234375 146.816406 C 142.046875 148.855469 141.304688 153.894531 141.304688 153.894531 C 141.304688 153.894531 142.199219 159.308594 143.117188 161.800781 C 143.144531 161.875 143.234375 161.902344 143.296875 161.855469 L 144.132812 161.242188 C 144.308594 161.113281 144.550781 161.273438 144.5 161.484375 C 144.210938 162.734375 144.296875 163.894531 144.378906 165.304688 C 144.5 167.402344 145.757812 169.511719 146.484375 170.582031 C 146.796875 171.042969 147.464844 171.070312 147.816406 170.636719 C 148.175781 170.191406 148.605469 169.789062 149.0625 169.4375 C 149.554688 169.058594 150.621094 169.6875 150.621094 169.6875 C 150.621094 169.6875 153.746094 173.167969 155.570312 174.695312 C 155.597656 174.71875 155.632812 174.738281 155.664062 174.730469 C 155.675781 174.726562 155.6875 174.734375 155.699219 174.753906 C 157.640625 172.84375 159.832031 171.113281 161.777344 169.148438 C 162.003906 168.917969 162.378906 168.941406 162.582031 169.1875 C 162.835938 169.5 163.078125 169.824219 163.300781 170.15625 C 163.722656 170.777344 164.644531 170.75 165.019531 170.097656 C 165.742188 168.828125 167.144531 165.007812 167.144531 165.007812 C 167.144531 165.007812 167.292969 162.996094 167.023438 162.019531 C 166.921875 161.640625 167.347656 161.347656 167.664062 161.578125 L 168.039062 161.855469 C 168.105469 161.902344 168.191406 161.878906 168.21875 161.804688 C 169.015625 159.6875 170.121094 154.589844 170.121094 154.589844 C 170.121094 154.589844 169.484375 149.15625 168.105469 146.820312 C 168.046875 146.722656 168.152344 146.605469 168.253906 146.652344"/></g><g clip-path="url(#d)"><path fill="#32373B" d="M 147 145.070312 C 147.015625 145.03125 146.996094 144.984375 146.957031 144.96875 C 146.84375 144.925781 146.757812 144.953125 146.679688 144.988281 C 146.597656 145.019531 146.519531 145.054688 146.441406 145.09375 C 146.285156 145.167969 146.128906 145.253906 145.988281 145.351562 C 145.84375 145.453125 145.710938 145.570312 145.589844 145.695312 C 145.53125 145.761719 145.464844 145.820312 145.425781 145.898438 C 145.382812 145.980469 145.355469 146.074219 145.378906 146.203125 C 145.445312 146.203125 145.496094 146.195312 145.542969 146.183594 C 145.589844 146.171875 145.628906 146.152344 145.667969 146.132812 C 145.703125 146.113281 145.738281 146.089844 145.765625 146.0625 L 145.859375 145.984375 C 145.984375 145.882812 146.109375 145.785156 146.234375 145.6875 C 146.359375 145.589844 146.484375 145.492188 146.617188 145.398438 C 146.683594 145.351562 146.75 145.308594 146.820312 145.265625 C 146.890625 145.226562 146.957031 145.183594 147 145.070312 Z M 145.992188 154.226562 C 145.914062 154.378906 145.84375 154.53125 145.777344 154.6875 L 145.589844 155.15625 C 145.351562 155.792969 145.167969 156.445312 145.046875 157.113281 C 144.925781 157.777344 144.859375 158.453125 144.847656 159.128906 L 144.851562 159.636719 L 144.871094 160.140625 C 144.882812 160.308594 144.894531 160.476562 144.921875 160.644531 C 144.953125 160.808594 144.988281 160.976562 145.050781 161.136719 C 145.058594 161.15625 145.074219 161.167969 145.09375 161.171875 C 145.125 161.179688 145.15625 161.15625 145.160156 161.125 C 145.1875 160.953125 145.191406 160.789062 145.191406 160.621094 C 145.199219 160.457031 145.1875 160.292969 145.183594 160.128906 L 145.183594 159.636719 L 145.203125 159.140625 C 145.238281 158.484375 145.324219 157.832031 145.453125 157.191406 C 145.582031 156.546875 145.75 155.910156 145.960938 155.289062 L 146.125 154.828125 C 146.1875 154.675781 146.246094 154.519531 146.296875 154.363281 C 146.355469 154.210938 146.410156 154.054688 146.457031 153.894531 C 146.507812 153.734375 146.554688 153.570312 146.585938 153.398438 C 146.464844 153.523438 146.359375 153.65625 146.257812 153.792969 C 146.160156 153.933594 146.074219 154.082031 145.992188 154.226562 Z M 148.894531 168.582031 C 148.835938 168.351562 148.757812 168.136719 148.671875 167.921875 C 148.597656 167.703125 148.511719 167.492188 148.425781 167.277344 L 148.195312 166.625 L 147.992188 165.96875 C 147.738281 165.082031 147.558594 164.179688 147.445312 163.269531 C 147.332031 162.359375 147.28125 161.441406 147.304688 160.523438 L 147.332031 159.835938 C 147.351562 159.605469 147.367188 159.375 147.378906 159.148438 C 147.394531 158.917969 147.410156 158.6875 147.414062 158.453125 C 147.429688 158.222656 147.4375 157.988281 147.429688 157.75 C 147.339844 157.96875 147.265625 158.195312 147.195312 158.417969 C 147.136719 158.648438 147.085938 158.875 147.042969 159.109375 C 147.007812 159.339844 146.980469 159.574219 146.957031 159.804688 L 146.910156 160.507812 C 146.867188 161.449219 146.90625 162.390625 147.035156 163.324219 C 147.160156 164.253906 147.371094 165.175781 147.652344 166.070312 L 147.878906 166.734375 L 148.132812 167.390625 C 148.230469 167.605469 148.320312 167.820312 148.425781 168.03125 C 148.539062 168.238281 148.65625 168.441406 148.796875 168.632812 C 148.808594 168.648438 148.832031 168.660156 148.855469 168.652344 C 148.882812 168.644531 148.902344 168.613281 148.894531 168.585938 Z M 145.464844 150.851562 L 145.625 150.628906 L 145.789062 150.410156 C 145.902344 150.265625 146.011719 150.125 146.074219 149.929688 C 146.078125 149.914062 146.074219 149.902344 146.070312 149.886719 C 146.058594 149.855469 146.023438 149.839844 145.992188 149.855469 C 145.894531 149.894531 145.816406 149.949219 145.742188 150.007812 C 145.671875 150.070312 145.609375 150.140625 145.546875 150.210938 L 145.179688 150.640625 C 144.945312 150.933594 144.722656 151.242188 144.523438 151.558594 C 144.320312 151.878906 144.144531 152.214844 143.988281 152.558594 C 143.914062 152.730469 143.832031 152.902344 143.78125 153.082031 C 143.730469 153.265625 143.703125 153.457031 143.730469 153.664062 C 143.8125 153.597656 143.875 153.523438 143.933594 153.449219 C 143.992188 153.371094 144.042969 153.296875 144.089844 153.214844 C 144.140625 153.136719 144.179688 153.054688 144.21875 152.972656 L 144.34375 152.730469 C 144.511719 152.40625 144.691406 152.089844 144.875 151.777344 C 145.0625 151.460938 145.253906 151.152344 145.464844 150.851562 Z M 142.734375 145.074219 L 142.585938 144.914062 C 142.542969 144.859375 142.5 144.800781 142.457031 144.742188 C 142.296875 144.507812 142.171875 144.246094 142.125 143.964844 L 142.105469 143.855469 C 142.101562 143.820312 142.101562 143.785156 142.097656 143.75 C 142.089844 143.679688 142.097656 143.605469 142.101562 143.535156 C 142.113281 143.390625 142.136719 143.25 142.148438 143.101562 L 142.148438 143.097656 C 142.148438 143.089844 142.144531 143.082031 142.136719 143.074219 C 142.125 143.066406 142.109375 143.066406 142.097656 143.078125 C 142 143.210938 141.964844 143.367188 141.945312 143.519531 C 141.9375 143.597656 141.929688 143.675781 141.933594 143.753906 C 141.933594 143.792969 141.933594 143.832031 141.9375 143.871094 L 141.953125 143.988281 C 141.992188 144.300781 142.113281 144.601562 142.289062 144.859375 C 142.421875 145.066406 142.59375 145.234375 142.773438 145.390625 C 142.804688 145.328125 142.835938 145.265625 142.867188 145.203125 L 142.808594 145.152344 C 142.78125 145.128906 142.761719 145.097656 142.734375 145.074219 Z M 151.332031 159.289062 C 151.1875 158.980469 151.03125 158.703125 150.910156 158.402344 C 150.789062 158.101562 150.710938 157.785156 150.640625 157.460938 C 150.511719 156.808594 150.40625 156.132812 150.230469 155.46875 C 150.140625 155.140625 150.042969 154.8125 149.921875 154.488281 L 149.835938 154.25 C 149.828125 154.230469 149.820312 154.210938 149.8125 154.1875 L 149.777344 154.121094 L 149.746094 154.050781 L 149.707031 153.992188 C 149.613281 153.832031 149.503906 153.695312 149.394531 153.558594 C 148.953125 153.03125 148.476562 152.539062 147.859375 152.207031 C 148.03125 152.511719 148.238281 152.78125 148.449219 153.039062 C 148.660156 153.300781 148.886719 153.542969 149.085938 153.804688 C 149.183594 153.933594 149.285156 154.066406 149.355469 154.199219 L 149.386719 154.246094 L 149.425781 154.339844 C 149.433594 154.355469 149.441406 154.375 149.449219 154.394531 L 149.53125 154.628906 C 149.644531 154.941406 149.738281 155.261719 149.832031 155.578125 C 149.917969 155.898438 150.003906 156.21875 150.074219 156.546875 C 150.148438 156.875 150.214844 157.207031 150.296875 157.539062 C 150.378906 157.871094 150.480469 158.203125 150.625 158.523438 C 150.765625 158.84375 150.960938 159.152344 151.246094 159.359375 C 151.261719 159.371094 151.28125 159.375 151.300781 159.367188 C 151.332031 159.355469 151.34375 159.320312 151.332031 159.292969 Z M 143.953125 145.078125 C 144.027344 145.011719 144.121094 144.9375 144.214844 144.871094 C 144.308594 144.808594 144.40625 144.75 144.507812 144.695312 C 144.710938 144.585938 144.925781 144.5 145.148438 144.4375 C 145.371094 144.378906 145.597656 144.339844 145.828125 144.324219 C 145.886719 144.320312 145.945312 144.308594 146.003906 144.3125 C 146.0625 144.308594 146.121094 144.308594 146.179688 144.304688 C 146.296875 144.300781 146.414062 144.308594 146.535156 144.300781 L 146.542969 144.300781 C 146.5625 144.300781 146.582031 144.285156 146.589844 144.265625 C 146.601562 144.234375 146.585938 144.203125 146.558594 144.195312 C 146.324219 144.109375 146.074219 144.054688 145.820312 144.050781 C 145.570312 144.039062 145.316406 144.078125 145.070312 144.136719 C 144.949219 144.164062 144.832031 144.199219 144.71875 144.242188 C 144.949219 144.011719 145.1875 143.789062 145.433594 143.578125 C 145.964844 143.125 146.523438 142.710938 147.121094 142.367188 C 147.421875 142.195312 147.730469 142.039062 148.046875 141.90625 C 148.363281 141.777344 148.691406 141.667969 149.023438 141.589844 C 149.355469 141.515625 149.695312 141.464844 150.035156 141.429688 C 150.378906 141.398438 150.726562 141.394531 151.089844 141.390625 C 150.757812 141.25 150.398438 141.167969 150.035156 141.140625 C 149.667969 141.117188 149.300781 141.148438 148.941406 141.222656 C 148.585938 141.296875 148.234375 141.402344 147.894531 141.53125 C 147.558594 141.667969 147.230469 141.828125 146.914062 142.003906 C 146.285156 142.363281 145.703125 142.792969 145.167969 143.273438 C 144.902344 143.511719 144.644531 143.761719 144.398438 144.023438 C 144.148438 144.285156 143.914062 144.550781 143.691406 144.84375 C 143.636719 144.910156 143.640625 145.007812 143.703125 145.070312 C 143.769531 145.144531 143.882812 145.148438 143.953125 145.078125 Z M 143.636719 143.414062 C 143.554688 143.335938 143.476562 143.257812 143.386719 143.191406 C 143.046875 142.898438 142.65625 142.664062 142.246094 142.484375 C 142.039062 142.394531 141.832031 142.3125 141.613281 142.265625 C 141.394531 142.222656 141.164062 142.207031 140.933594 142.273438 C 141.132812 142.402344 141.316406 142.496094 141.511719 142.585938 C 141.605469 142.628906 141.703125 142.667969 141.796875 142.710938 C 141.890625 142.753906 141.988281 142.789062 142.078125 142.839844 C 142.449219 143.027344 142.804688 143.25 143.125 143.511719 C 143.277344 143.636719 143.425781 143.765625 143.570312 143.90625 C 143.636719 143.789062 143.707031 143.675781 143.78125 143.558594 C 143.734375 143.507812 143.683594 143.464844 143.636719 143.414062 Z M 159.878906 166.238281 C 159.917969 166.136719 159.957031 166.03125 159.992188 165.925781 C 160.027344 165.820312 160.058594 165.710938 160.011719 165.582031 C 160.007812 165.574219 160.007812 165.570312 160.003906 165.566406 C 159.984375 165.535156 159.941406 165.523438 159.90625 165.542969 C 159.789062 165.617188 159.742188 165.710938 159.699219 165.808594 C 159.65625 165.90625 159.605469 166 159.558594 166.09375 C 159.457031 166.28125 159.351562 166.460938 159.242188 166.640625 C 159.128906 166.820312 159.019531 167 158.90625 167.175781 L 158.820312 167.308594 C 158.789062 167.351562 158.761719 167.398438 158.742188 167.445312 C 158.71875 167.496094 158.699219 167.546875 158.683594 167.605469 C 158.671875 167.664062 158.660156 167.726562 158.664062 167.800781 C 158.8125 167.785156 158.914062 167.726562 159.003906 167.65625 C 159.09375 167.582031 159.15625 167.492188 159.230469 167.40625 C 159.367188 167.230469 159.492188 167.042969 159.597656 166.847656 C 159.707031 166.652344 159.800781 166.449219 159.878906 166.238281 Z M 166.003906 157.121094 C 166.015625 157.046875 166.011719 156.96875 166.011719 156.894531 L 166 156.664062 L 165.980469 156.433594 C 165.953125 156.132812 165.902344 155.828125 165.824219 155.53125 C 165.746094 155.230469 165.640625 154.941406 165.507812 154.664062 C 165.441406 154.527344 165.378906 154.386719 165.289062 154.261719 C 165.195312 154.136719 165.082031 154.023438 164.921875 153.945312 C 164.914062 154.035156 164.921875 154.117188 164.9375 154.191406 C 164.949219 154.269531 164.964844 154.34375 164.988281 154.414062 C 165.007812 154.484375 165.035156 154.550781 165.066406 154.617188 L 165.144531 154.820312 C 165.25 155.089844 165.339844 155.363281 165.425781 155.640625 C 165.507812 155.917969 165.578125 156.199219 165.632812 156.484375 L 165.667969 156.699219 L 165.699219 156.917969 C 165.707031 156.988281 165.710938 157.0625 165.730469 157.132812 C 165.75 157.207031 165.769531 157.277344 165.816406 157.351562 L 165.820312 157.355469 C 165.824219 157.363281 165.832031 157.371094 165.839844 157.375 C 165.871094 157.394531 165.910156 157.382812 165.929688 157.351562 C 165.972656 157.277344 165.992188 157.199219 166.003906 157.121094 Z M 164.078125 159.378906 L 163.984375 158.972656 C 163.945312 158.839844 163.90625 158.707031 163.859375 158.578125 C 163.808594 158.449219 163.75 158.320312 163.6875 158.199219 C 163.617188 158.078125 163.542969 157.957031 163.449219 157.847656 C 163.445312 157.992188 163.457031 158.128906 163.476562 158.265625 C 163.488281 158.402344 163.507812 158.535156 163.535156 158.667969 C 163.558594 158.800781 163.585938 158.929688 163.617188 159.0625 L 163.691406 159.453125 C 163.785156 159.980469 163.847656 160.511719 163.882812 161.042969 C 163.914062 161.574219 163.914062 162.109375 163.878906 162.644531 L 163.84375 163.042969 L 163.792969 163.441406 C 163.773438 163.574219 163.75 163.707031 163.742188 163.84375 C 163.726562 163.976562 163.714844 164.109375 163.730469 164.253906 L 163.730469 164.257812 C 163.730469 164.273438 163.742188 164.289062 163.757812 164.300781 C 163.785156 164.316406 163.820312 164.308594 163.835938 164.28125 C 163.910156 164.15625 163.960938 164.027344 164.007812 163.898438 C 164.046875 163.765625 164.074219 163.628906 164.101562 163.496094 L 164.175781 163.085938 L 164.230469 162.675781 C 164.292969 162.128906 164.316406 161.574219 164.292969 161.019531 C 164.273438 160.46875 164.199219 159.917969 164.078125 159.378906 Z M 169.699219 171.136719 C 169.359375 171.066406 169.019531 170.992188 168.675781 170.917969 C 168.46875 170.875 168.328125 170.894531 168.273438 170.675781 C 168.191406 170.351562 168.128906 170.015625 168.058594 169.6875 C 168.027344 169.542969 168.003906 169.394531 167.964844 169.25 C 167.945312 169.179688 167.820312 168.976562 167.785156 169.164062 C 167.691406 169.671875 167.59375 170.183594 167.5 170.691406 C 167.460938 170.878906 167.40625 170.890625 167.222656 170.929688 C 166.910156 170.996094 166.597656 171.0625 166.285156 171.125 C 166.183594 171.144531 165.742188 171.203125 166.003906 171.351562 C 166.074219 171.390625 166.207031 171.394531 166.285156 171.410156 C 166.453125 171.445312 166.625 171.480469 166.792969 171.515625 C 166.9375 171.542969 167.078125 171.574219 167.222656 171.601562 C 167.28125 171.613281 167.402344 171.617188 167.449219 171.664062 C 167.546875 171.765625 167.539062 172.109375 167.558594 172.234375 C 167.609375 172.554688 167.664062 172.878906 167.714844 173.203125 C 167.730469 173.277344 167.742188 173.722656 167.886719 173.6875 C 168.003906 173.65625 168.015625 173.234375 168.03125 173.148438 C 168.09375 172.820312 168.152344 172.492188 168.214844 172.160156 C 168.238281 172.023438 168.230469 171.707031 168.367188 171.625 C 168.519531 171.53125 168.839844 171.539062 169.011719 171.503906 C 169.28125 171.457031 169.601562 171.445312 169.855469 171.351562 C 170.125 171.253906 169.832031 171.164062 169.699219 171.136719 Z M 163.542969 151.792969 C 163.390625 151.894531 163.25 152.019531 163.113281 152.144531 C 162.851562 152.40625 162.628906 152.710938 162.429688 153.023438 C 162.378906 153.101562 162.332031 153.183594 162.289062 153.265625 L 162.21875 153.390625 L 162.160156 153.515625 C 162.117188 153.601562 162.078125 153.683594 162.042969 153.773438 C 162.003906 153.863281 161.96875 153.972656 161.953125 154.074219 C 161.925781 154.273438 161.910156 154.425781 161.875 154.609375 C 161.847656 154.785156 161.816406 154.960938 161.785156 155.136719 C 161.664062 155.839844 161.507812 156.539062 161.3125 157.226562 C 161.214844 157.566406 161.105469 157.90625 160.96875 158.230469 C 160.902344 158.390625 160.828125 158.550781 160.753906 158.703125 C 160.675781 158.859375 160.597656 159.007812 160.492188 159.140625 L 160.488281 159.144531 C 160.476562 159.160156 160.472656 159.179688 160.480469 159.199219 C 160.492188 159.230469 160.527344 159.242188 160.554688 159.230469 C 160.648438 159.191406 160.726562 159.128906 160.796875 159.0625 C 160.867188 158.992188 160.925781 158.917969 160.980469 158.84375 C 161.089844 158.6875 161.175781 158.523438 161.253906 158.351562 C 161.40625 158.015625 161.53125 157.671875 161.644531 157.328125 C 161.871094 156.632812 162.042969 155.925781 162.1875 155.214844 C 162.222656 155.035156 162.257812 154.855469 162.285156 154.679688 C 162.300781 154.589844 162.320312 154.5 162.332031 154.40625 C 162.34375 154.3125 162.351562 154.21875 162.367188 154.144531 C 162.378906 154.070312 162.398438 154.003906 162.425781 153.925781 C 162.453125 153.847656 162.492188 153.769531 162.527344 153.691406 L 162.582031 153.574219 L 162.644531 153.457031 C 162.683594 153.378906 162.722656 153.304688 162.769531 153.230469 C 162.941406 152.925781 163.152344 152.648438 163.367188 152.371094 L 164.035156 151.53125 C 163.859375 151.59375 163.695312 151.6875 163.542969 151.792969 Z M 160.082031 158.109375 C 160.332031 158.136719 160.585938 158.125 160.820312 158.0625 C 160.359375 157.949219 159.957031 157.753906 159.578125 157.515625 C 159.199219 157.277344 158.839844 157 158.484375 156.710938 L 157.953125 156.273438 C 157.773438 156.125 157.59375 155.976562 157.40625 155.832031 C 157.21875 155.6875 157.027344 155.546875 156.824219 155.417969 C 156.632812 155.300781 156.429688 155.183594 156.1875 155.132812 L 156.207031 154.800781 C 156.226562 154.472656 156.246094 154.148438 156.261719 153.820312 C 156.273438 153.492188 156.273438 153.164062 156.273438 152.835938 C 156.269531 152.710938 156.273438 152.589844 156.265625 152.464844 C 156.28125 152.453125 156.300781 152.4375 156.316406 152.421875 C 156.476562 152.257812 156.9375 151.960938 157.34375 151.710938 C 157.613281 151.542969 157.941406 151.832031 157.808594 152.121094 C 157.804688 152.121094 157.804688 152.125 157.804688 152.125 C 157.777344 152.179688 157.828125 152.21875 157.886719 152.21875 C 159.164062 152.21875 159.1875 150.84375 159.140625 150.789062 C 158.984375 150.378906 158.941406 149.609375 158.25 149.609375 C 158.066406 149.609375 157.648438 149.773438 157.1875 150.113281 C 156.535156 150.597656 155.644531 150.597656 154.992188 150.113281 C 154.53125 149.773438 154.113281 149.609375 153.929688 149.609375 C 153.398438 149.609375 153.199219 150.378906 153.039062 150.789062 C 152.988281 150.84375 153.085938 151.167969 153.125 151.265625 C 153.324219 151.71875 153.648438 152.003906 153.980469 152.160156 C 154.066406 152.199219 154.15625 152.113281 154.125 152.023438 C 154.121094 152.019531 154.121094 152.015625 154.121094 152.011719 C 154.023438 151.746094 154.285156 151.484375 154.550781 151.578125 C 155.167969 151.796875 155.617188 152.171875 155.863281 152.421875 C 155.875 152.433594 155.890625 152.441406 155.902344 152.453125 C 155.886719 152.578125 155.886719 152.703125 155.878906 152.828125 C 155.859375 153.15625 155.847656 153.484375 155.847656 153.8125 C 155.84375 154.136719 155.847656 154.464844 155.855469 154.792969 L 155.859375 155.113281 C 155.8125 155.121094 155.765625 155.128906 155.714844 155.136719 C 155.589844 155.164062 155.472656 155.203125 155.359375 155.25 C 155.128906 155.339844 154.914062 155.449219 154.707031 155.566406 C 154.292969 155.804688 153.90625 156.066406 153.519531 156.328125 C 153.128906 156.582031 152.746094 156.839844 152.375 157.101562 C 152.191406 157.234375 152.003906 157.347656 151.824219 157.480469 C 151.78125 157.511719 151.734375 157.542969 151.691406 157.578125 L 151.554688 157.671875 C 151.464844 157.734375 151.371094 157.796875 151.261719 157.855469 L 151.226562 157.871094 C 151.203125 157.882812 151.1875 157.90625 151.1875 157.9375 C 151.1875 157.976562 151.21875 158.011719 151.261719 158.011719 C 151.539062 158.015625 151.773438 157.925781 152.003906 157.84375 C 152.121094 157.800781 152.230469 157.75 152.339844 157.699219 C 152.449219 157.652344 152.558594 157.601562 152.667969 157.546875 C 152.777344 157.492188 152.882812 157.4375 152.988281 157.382812 L 153.304688 157.222656 C 153.519531 157.113281 153.722656 157 153.929688 156.886719 C 154.339844 156.664062 154.730469 156.429688 155.105469 156.214844 C 155.195312 156.160156 155.289062 156.109375 155.378906 156.0625 C 155.46875 156.011719 155.554688 155.964844 155.640625 155.925781 C 155.722656 155.886719 155.804688 155.855469 155.875 155.835938 C 155.960938 155.8125 155.953125 155.8125 156.007812 155.816406 C 156.105469 155.824219 156.277344 155.898438 156.441406 156 C 156.613281 156.105469 156.789062 156.234375 156.964844 156.371094 L 157.507812 156.792969 C 157.691406 156.933594 157.878906 157.082031 158.078125 157.214844 C 158.46875 157.488281 158.890625 157.75 159.355469 157.925781 C 159.589844 158.015625 159.835938 158.082031 160.082031 158.109375 Z M 162.195312 161.234375 C 162.148438 161.425781 162.117188 161.617188 162.089844 161.804688 C 162.058594 161.996094 162.035156 162.183594 162.015625 162.375 C 161.988281 162.5625 161.96875 162.75 161.953125 162.9375 L 161.882812 163.5 C 161.773438 164.246094 161.609375 164.988281 161.398438 165.710938 C 161.191406 166.4375 160.929688 167.148438 160.617188 167.839844 L 160.371094 168.351562 L 160.105469 168.851562 C 160.011719 169.015625 159.914062 169.179688 159.828125 169.351562 C 159.734375 169.515625 159.648438 169.6875 159.578125 169.871094 C 159.570312 169.890625 159.574219 169.914062 159.589844 169.929688 C 159.613281 169.953125 159.648438 169.953125 159.671875 169.933594 C 159.8125 169.800781 159.9375 169.648438 160.058594 169.496094 C 160.171875 169.339844 160.273438 169.171875 160.375 169.007812 L 160.664062 168.507812 L 160.933594 167.992188 C 161.28125 167.296875 161.570312 166.574219 161.796875 165.832031 C 162.023438 165.085938 162.179688 164.324219 162.273438 163.550781 L 162.328125 162.972656 C 162.339844 162.777344 162.347656 162.585938 162.351562 162.390625 C 162.34375 162.195312 162.332031 162.003906 162.3125 161.808594 C 162.285156 161.617188 162.25 161.421875 162.195312 161.234375 Z M 141.171875 136.242188 C 141.269531 136.34375 141.257812 136.683594 141.28125 136.808594 C 141.332031 137.132812 141.386719 137.457031 141.4375 137.78125 C 141.449219 137.855469 141.460938 138.300781 141.609375 138.265625 C 141.722656 138.234375 141.738281 137.8125 141.753906 137.726562 C 141.8125 137.398438 141.875 137.070312 141.933594 136.738281 C 141.960938 136.597656 141.953125 136.28125 142.085938 136.199219 C 142.238281 136.109375 142.558594 136.113281 142.734375 136.082031 C 143.003906 136.035156 143.320312 136.023438 143.578125 135.929688 C 143.847656 135.832031 143.550781 135.742188 143.421875 135.714844 C 143.082031 135.640625 142.738281 135.570312 142.398438 135.496094 C 142.1875 135.449219 142.046875 135.472656 141.992188 135.253906 C 141.914062 134.925781 141.851562 134.59375 141.78125 134.265625 C 141.75 134.121094 141.726562 133.972656 141.6875 133.828125 C 141.667969 133.757812 141.542969 133.554688 141.507812 133.742188 C 141.410156 134.25 141.316406 134.757812 141.21875 135.265625 C 141.183594 135.457031 141.128906 135.46875 140.941406 135.507812 C 140.628906 135.574219 140.316406 135.636719 140.003906 135.703125 C 139.90625 135.722656 139.464844 135.78125 139.726562 135.929688 C 139.796875 135.96875 139.925781 135.972656 140.003906 135.988281 C 140.175781 136.023438 140.34375 136.058594 140.515625 136.089844 C 140.65625 136.121094 140.800781 136.148438 140.941406 136.179688 C 141.003906 136.191406 141.125 136.191406 141.171875 136.242188 Z M 153.175781 167.710938 C 153.15625 167.636719 153.125 167.582031 153.089844 167.53125 C 153.054688 167.480469 153.011719 167.441406 152.96875 167.398438 L 152.847656 167.265625 L 152.734375 167.128906 C 152.585938 166.941406 152.453125 166.746094 152.328125 166.546875 C 152.203125 166.347656 152.085938 166.140625 151.980469 165.929688 L 151.902344 165.769531 C 151.878906 165.714844 151.851562 165.660156 151.820312 165.609375 C 151.789062 165.558594 151.753906 165.507812 151.710938 165.457031 C 151.667969 165.40625 151.617188 165.359375 151.550781 165.3125 C 151.488281 165.457031 151.484375 165.59375 151.503906 165.722656 C 151.523438 165.851562 151.574219 165.96875 151.617188 166.089844 C 151.714844 166.328125 151.835938 166.558594 151.980469 166.773438 C 152.125 166.984375 152.289062 167.183594 152.472656 167.363281 L 152.609375 167.496094 L 152.753906 167.625 C 152.804688 167.664062 152.851562 167.707031 152.90625 167.738281 C 152.964844 167.769531 153.03125 167.792969 153.105469 167.796875 C 153.113281 167.796875 153.121094 167.796875 153.125 167.796875 C 153.164062 167.789062 153.183594 167.75 153.175781 167.714844 Z M 150.71875 167.050781 L 150.59375 166.714844 C 150.429688 166.269531 150.285156 165.820312 150.148438 165.363281 C 150.011719 164.910156 149.882812 164.453125 149.765625 163.996094 L 149.679688 163.648438 C 149.65625 163.535156 149.625 163.417969 149.589844 163.304688 C 149.558594 163.191406 149.519531 163.074219 149.46875 162.964844 C 149.425781 162.851562 149.375 162.738281 149.304688 162.628906 C 149.242188 162.878906 149.242188 163.125 149.261719 163.367188 C 149.28125 163.609375 149.335938 163.847656 149.382812 164.082031 C 149.480469 164.558594 149.601562 165.027344 149.753906 165.488281 C 149.902344 165.949219 150.074219 166.402344 150.265625 166.847656 L 150.414062 167.179688 L 150.566406 167.507812 C 150.617188 167.617188 150.667969 167.726562 150.734375 167.828125 C 150.800781 167.929688 150.867188 168.03125 150.960938 168.121094 C 150.972656 168.132812 150.992188 168.136719 151.007812 168.136719 C 151.039062 168.132812 151.0625 168.105469 151.0625 168.070312 C 151.035156 167.820312 150.945312 167.601562 150.851562 167.382812 Z M 156.472656 140.125 C 156.734375 140.019531 156.972656 139.929688 157.210938 139.835938 C 157.328125 139.789062 157.453125 139.75 157.570312 139.699219 C 157.6875 139.65625 157.8125 139.621094 157.933594 139.582031 C 158.429688 139.445312 158.945312 139.382812 159.460938 139.355469 C 159.976562 139.320312 160.5 139.363281 161.019531 139.410156 C 161.28125 139.445312 161.539062 139.488281 161.796875 139.527344 C 162.054688 139.585938 162.3125 139.636719 162.59375 139.617188 L 162.597656 139.617188 C 162.613281 139.617188 162.632812 139.605469 162.640625 139.589844 C 162.65625 139.5625 162.648438 139.527344 162.621094 139.511719 C 162.140625 139.226562 161.597656 139.175781 161.070312 139.0625 L 160.667969 139.007812 C 160.53125 138.988281 160.398438 138.96875 160.261719 138.964844 L 159.855469 138.941406 C 159.71875 138.929688 159.582031 138.941406 159.445312 138.941406 C 158.898438 138.957031 158.347656 139.035156 157.820312 139.203125 C 157.5625 139.296875 157.296875 139.386719 157.0625 139.535156 C 156.824219 139.683594 156.605469 139.871094 156.472656 140.125 Z M 157.285156 147.917969 C 157.5 147.863281 157.683594 147.820312 157.863281 147.792969 C 158.046875 147.761719 158.226562 147.738281 158.410156 147.75 C 158.777344 147.773438 159.144531 147.894531 159.460938 148.082031 C 159.785156 148.277344 160.074219 148.535156 160.339844 148.828125 C 160.472656 148.972656 160.597656 149.128906 160.722656 149.289062 C 160.84375 149.445312 160.964844 149.609375 161.152344 149.726562 C 161.164062 149.734375 161.179688 149.738281 161.195312 149.734375 C 161.226562 149.726562 161.25 149.695312 161.242188 149.664062 C 161.199219 149.449219 161.09375 149.273438 160.976562 149.105469 C 160.859375 148.933594 160.738281 148.765625 160.609375 148.601562 C 160.347656 148.273438 160.046875 147.964844 159.679688 147.730469 C 159.304688 147.492188 158.867188 147.363281 158.421875 147.355469 C 158.203125 147.359375 157.972656 147.378906 157.765625 147.46875 C 157.558594 147.558594 157.375 147.710938 157.285156 147.917969 Z M 161.933594 146.433594 C 162.054688 146.40625 162.175781 146.363281 162.308594 146.269531 C 162.1875 146.164062 162.054688 146.121094 161.921875 146.097656 C 161.792969 146.078125 161.660156 146.09375 161.53125 146.097656 C 161.269531 146.113281 161.011719 146.148438 160.757812 146.210938 C 160.691406 146.226562 160.628906 146.242188 160.566406 146.261719 C 160.507812 146.269531 160.449219 146.28125 160.394531 146.304688 C 160.359375 146.316406 160.328125 146.332031 160.300781 146.347656 C 160.203125 146.382812 160.105469 146.421875 160.011719 146.464844 C 159.890625 146.519531 159.773438 146.578125 159.65625 146.652344 C 159.597656 146.683594 159.542969 146.726562 159.492188 146.773438 C 159.46875 146.796875 159.445312 146.824219 159.429688 146.855469 C 159.410156 146.886719 159.390625 146.921875 159.382812 146.957031 C 159.378906 146.964844 159.378906 146.972656 159.378906 146.980469 C 159.382812 147.015625 159.414062 147.042969 159.449219 147.042969 L 159.453125 147.042969 C 159.605469 147.03125 159.699219 146.976562 159.808594 146.925781 C 159.855469 146.902344 159.90625 146.878906 159.960938 146.859375 C 159.953125 146.945312 159.960938 147.03125 159.996094 147.117188 C 160.117188 147.429688 160.492188 147.582031 160.835938 147.449219 C 161.179688 147.316406 161.359375 146.949219 161.234375 146.636719 C 161.222656 146.605469 161.210938 146.578125 161.195312 146.550781 C 161.320312 146.527344 161.445312 146.507812 161.570312 146.488281 C 161.691406 146.46875 161.8125 146.464844 161.933594 146.433594 Z M 162.355469 142.8125 C 162.378906 142.917969 162.417969 143.011719 162.460938 143.105469 C 162.507812 143.191406 162.5625 143.277344 162.621094 143.355469 C 162.679688 143.433594 162.746094 143.507812 162.816406 143.578125 L 163.023438 143.78125 C 163.308594 144.050781 163.617188 144.292969 163.949219 144.507812 C 164.277344 144.71875 164.625 144.902344 164.984375 145.058594 L 165.253906 145.171875 L 165.527344 145.273438 C 165.621094 145.304688 165.710938 145.339844 165.808594 145.359375 C 165.90625 145.375 166.003906 145.386719 166.109375 145.375 C 166.121094 145.371094 166.132812 145.367188 166.144531 145.355469 C 166.167969 145.332031 166.167969 145.292969 166.144531 145.269531 L 166.140625 145.269531 C 166.066406 145.195312 165.980469 145.144531 165.898438 145.101562 C 165.816406 145.054688 165.726562 145.019531 165.640625 144.984375 L 165.386719 144.867188 L 165.136719 144.742188 C 164.804688 144.566406 164.484375 144.371094 164.179688 144.160156 C 163.871094 143.949219 163.574219 143.726562 163.285156 143.484375 L 163.074219 143.304688 C 163.007812 143.238281 162.9375 143.179688 162.863281 143.121094 C 162.789062 143.0625 162.710938 143.003906 162.625 142.953125 C 162.542969 142.902344 162.457031 142.851562 162.355469 142.8125 Z M 169.246094 142.980469 L 169.226562 143.085938 C 169.179688 143.367188 169.054688 143.632812 168.890625 143.867188 C 168.847656 143.925781 168.808594 143.984375 168.761719 144.039062 L 168.613281 144.195312 C 168.589844 144.222656 168.566406 144.253906 168.539062 144.277344 L 168.457031 144.347656 L 168.292969 144.492188 C 168.25 144.527344 168.203125 144.558594 168.15625 144.59375 C 168.183594 144.648438 168.214844 144.707031 168.246094 144.761719 C 168.300781 144.722656 168.355469 144.683594 168.414062 144.648438 C 168.652344 144.457031 168.890625 144.25 169.0625 143.984375 C 169.238281 143.722656 169.355469 143.425781 169.398438 143.113281 L 169.414062 142.996094 C 169.414062 142.957031 169.414062 142.917969 169.414062 142.878906 C 169.421875 142.800781 169.410156 142.722656 169.40625 142.644531 C 169.386719 142.488281 169.351562 142.332031 169.25 142.203125 C 169.246094 142.195312 169.238281 142.191406 169.226562 142.191406 C 169.210938 142.195312 169.199219 142.207031 169.199219 142.222656 L 169.203125 142.226562 C 169.214844 142.375 169.238281 142.515625 169.25 142.660156 C 169.253906 142.730469 169.257812 142.800781 169.25 142.875 C 169.25 142.910156 169.246094 142.945312 169.246094 142.980469 Z M 168.226562 142.632812 C 168.546875 142.371094 168.898438 142.152344 169.269531 141.964844 C 169.363281 141.914062 169.457031 141.878906 169.554688 141.832031 C 169.648438 141.792969 169.746094 141.753906 169.839844 141.707031 C 170.03125 141.621094 170.21875 141.523438 170.417969 141.394531 C 170.1875 141.328125 169.957031 141.347656 169.738281 141.386719 C 169.515625 141.433594 169.308594 141.519531 169.101562 141.605469 C 168.695312 141.789062 168.304688 142.019531 167.964844 142.3125 C 167.875 142.382812 167.792969 142.460938 167.714844 142.539062 C 167.636719 142.617188 167.550781 142.691406 167.480469 142.777344 L 167.261719 143.03125 C 167.253906 143.042969 167.246094 143.050781 167.238281 143.058594 C 167.3125 143.167969 167.382812 143.277344 167.453125 143.386719 C 167.683594 143.109375 167.949219 142.859375 168.226562 142.632812 Z M 166.351562 149.976562 C 166.261719 149.925781 166.167969 149.882812 166.066406 149.851562 C 166.097656 149.957031 166.144531 150.046875 166.191406 150.132812 C 166.234375 150.21875 166.285156 150.300781 166.339844 150.378906 C 166.390625 150.457031 166.445312 150.535156 166.503906 150.605469 L 166.660156 150.835938 C 166.867188 151.144531 167.046875 151.472656 167.203125 151.808594 C 167.359375 152.148438 167.488281 152.5 167.582031 152.859375 L 167.644531 153.132812 L 167.695312 153.410156 C 167.707031 153.503906 167.71875 153.59375 167.742188 153.6875 C 167.761719 153.78125 167.785156 153.875 167.832031 153.96875 L 167.835938 153.972656 C 167.839844 153.984375 167.851562 153.992188 167.863281 154 C 167.894531 154.011719 167.929688 153.996094 167.945312 153.96875 C 167.984375 153.867188 168 153.769531 168.015625 153.667969 C 168.019531 153.570312 168.011719 153.472656 168.003906 153.371094 L 167.972656 153.078125 L 167.925781 152.785156 C 167.851562 152.394531 167.738281 152.007812 167.582031 151.640625 C 167.425781 151.273438 167.222656 150.925781 166.984375 150.609375 L 166.800781 150.375 C 166.734375 150.296875 166.664062 150.226562 166.59375 150.15625 C 166.515625 150.09375 166.4375 150.03125 166.351562 149.976562 Z M 164.996094 143.796875 C 165.148438 143.902344 165.3125 143.992188 165.488281 144.054688 C 165.664062 144.117188 165.84375 144.15625 166.027344 144.179688 L 166.164062 144.191406 L 166.300781 144.199219 C 166.347656 144.199219 166.390625 144.203125 166.4375 144.191406 C 166.484375 144.179688 166.53125 144.160156 166.574219 144.117188 C 166.605469 144.085938 166.609375 144.039062 166.578125 144.007812 C 166.496094 143.917969 166.414062 143.902344 166.335938 143.890625 L 166.214844 143.863281 L 166.09375 143.832031 C 165.9375 143.789062 165.789062 143.730469 165.640625 143.667969 C 165.492188 143.601562 165.34375 143.535156 165.203125 143.460938 L 165.097656 143.402344 C 165.0625 143.382812 165.023438 143.363281 164.984375 143.351562 C 164.945312 143.335938 164.902344 143.324219 164.851562 143.320312 C 164.804688 143.3125 164.75 143.3125 164.683594 143.320312 C 164.683594 143.453125 164.726562 143.542969 164.785156 143.621094 C 164.84375 143.695312 164.921875 143.742188 164.996094 143.796875 Z M 158.59375 146.523438 C 158.769531 146.414062 158.941406 146.300781 159.109375 146.179688 C 159.277344 146.0625 159.4375 145.933594 159.601562 145.808594 L 159.84375 145.617188 C 159.925781 145.554688 160.007812 145.488281 160.042969 145.359375 C 160.042969 145.355469 160.042969 145.351562 160.046875 145.347656 C 160.050781 145.308594 160.019531 145.273438 159.980469 145.269531 C 159.847656 145.253906 159.757812 145.304688 159.667969 145.359375 L 159.402344 145.515625 C 159.222656 145.621094 159.046875 145.726562 158.875 145.839844 C 158.703125 145.949219 158.535156 146.070312 158.371094 146.195312 C 158.289062 146.261719 158.203125 146.316406 158.132812 146.394531 C 158.0625 146.472656 158 146.566406 157.972656 146.707031 C 158.113281 146.730469 158.222656 146.707031 158.320312 146.671875 C 158.421875 146.632812 158.503906 146.574219 158.59375 146.523438 Z M 154.722656 146.707031 C 154.734375 146.800781 154.757812 146.820312 154.785156 146.832031 C 154.808594 146.851562 154.835938 146.867188 154.859375 146.886719 C 154.90625 146.929688 154.949219 146.96875 154.988281 147.011719 C 155.03125 147.050781 155.074219 147.089844 155.117188 147.128906 C 155.125 147.140625 155.136719 147.152344 155.148438 147.160156 C 155.160156 147.171875 155.171875 147.179688 155.191406 147.1875 C 155.226562 147.199219 155.285156 147.203125 155.386719 147.199219 C 155.40625 147.179688 155.417969 147.164062 155.429688 147.144531 C 155.445312 147.128906 155.453125 147.113281 155.460938 147.097656 C 155.472656 147.070312 155.480469 147.039062 155.480469 147.015625 C 155.476562 146.964844 155.449219 146.929688 155.429688 146.890625 C 155.386719 146.8125 155.324219 146.746094 155.253906 146.691406 C 155.183594 146.640625 155.101562 146.601562 155.019531 146.574219 C 154.976562 146.558594 154.9375 146.550781 154.894531 146.539062 C 154.851562 146.53125 154.804688 146.527344 154.746094 146.601562 C 154.726562 146.628906 154.714844 146.664062 154.71875 146.699219 Z M 153.332031 147.335938 C 152.84375 147.398438 152.390625 147.628906 152.023438 147.933594 C 151.652344 148.238281 151.359375 148.625 151.121094 149.023438 C 151.007812 149.226562 150.890625 149.425781 150.808594 149.640625 C 150.726562 149.859375 150.667969 150.082031 150.660156 150.328125 C 150.847656 150.167969 150.984375 149.984375 151.109375 149.796875 C 151.234375 149.609375 151.335938 149.414062 151.457031 149.234375 C 151.695312 148.867188 151.96875 148.527344 152.289062 148.25 C 152.609375 147.976562 152.980469 147.761719 153.390625 147.683594 C 153.59375 147.644531 153.804688 147.632812 154.007812 147.660156 C 154.214844 147.691406 154.40625 147.75 154.636719 147.792969 C 154.652344 147.792969 154.667969 147.789062 154.683594 147.78125 C 154.707031 147.761719 154.714844 147.722656 154.695312 147.699219 C 154.621094 147.597656 154.519531 147.523438 154.410156 147.464844 C 154.300781 147.410156 154.179688 147.378906 154.0625 147.351562 C 153.820312 147.304688 153.574219 147.300781 153.332031 147.335938 Z M 151.007812 147.371094 C 151.351562 147.507812 151.730469 147.355469 151.851562 147.042969 C 151.886719 146.953125 151.894531 146.859375 151.886719 146.769531 L 151.960938 146.808594 C 152 146.835938 152.042969 146.855469 152.089844 146.871094 C 152.136719 146.890625 152.1875 146.90625 152.242188 146.914062 C 152.296875 146.925781 152.355469 146.929688 152.429688 146.925781 C 152.421875 146.855469 152.402344 146.796875 152.378906 146.738281 C 152.351562 146.6875 152.320312 146.640625 152.285156 146.597656 C 152.210938 146.515625 152.117188 146.460938 152.027344 146.398438 C 151.84375 146.285156 151.648438 146.1875 151.441406 146.125 C 151.234375 146.058594 151.019531 146.019531 150.804688 146.003906 L 150.640625 145.996094 L 150.480469 145.996094 C 150.425781 146 150.375 146 150.320312 146.011719 C 150.265625 146.03125 150.214844 146.054688 150.164062 146.097656 C 150.164062 146.101562 150.160156 146.105469 150.160156 146.105469 C 150.132812 146.136719 150.140625 146.183594 150.167969 146.207031 L 150.171875 146.210938 C 150.226562 146.253906 150.273438 146.273438 150.324219 146.285156 C 150.371094 146.300781 150.421875 146.304688 150.46875 146.308594 L 150.613281 146.328125 L 150.75 146.351562 C 150.691406 146.410156 150.640625 146.480469 150.609375 146.558594 C 150.488281 146.875 150.667969 147.238281 151.007812 147.371094 Z M 152.230469 145.582031 C 152.125 145.519531 152.027344 145.449219 151.910156 145.402344 C 151.796875 145.355469 151.671875 145.324219 151.515625 145.335938 C 151.5625 145.484375 151.636719 145.589844 151.722656 145.679688 C 151.808594 145.769531 151.910156 145.832031 152.007812 145.910156 C 152.203125 146.054688 152.398438 146.195312 152.605469 146.324219 C 152.804688 146.457031 153.015625 146.585938 153.222656 146.710938 L 153.535156 146.898438 C 153.636719 146.960938 153.742188 147.023438 153.894531 147.019531 C 153.898438 147.019531 153.90625 147.015625 153.914062 147.015625 C 153.949219 147 153.96875 146.960938 153.953125 146.925781 C 153.902344 146.785156 153.808594 146.710938 153.710938 146.640625 L 153.421875 146.417969 C 153.226562 146.269531 153.035156 146.125 152.835938 145.984375 C 152.640625 145.84375 152.433594 145.710938 152.230469 145.582031 Z M 148.902344 138.433594 C 149.398438 138.386719 149.894531 138.386719 150.378906 138.460938 C 150.863281 138.53125 151.335938 138.679688 151.765625 138.914062 L 151.847656 138.957031 L 151.925781 139.007812 C 151.976562 139.039062 152.027344 139.070312 152.078125 139.105469 C 152.179688 139.175781 152.28125 139.246094 152.375 139.328125 C 152.566406 139.484375 152.734375 139.660156 152.964844 139.796875 L 152.96875 139.800781 C 152.984375 139.808594 153 139.8125 153.019531 139.804688 C 153.046875 139.792969 153.0625 139.757812 153.050781 139.730469 C 152.953125 139.476562 152.78125 139.265625 152.578125 139.09375 C 152.484375 139 152.378906 138.917969 152.273438 138.835938 C 152.222656 138.792969 152.164062 138.757812 152.109375 138.71875 L 152.027344 138.660156 L 151.941406 138.609375 C 151.714844 138.464844 151.46875 138.355469 151.21875 138.257812 C 150.96875 138.164062 150.707031 138.09375 150.445312 138.050781 C 149.917969 137.960938 149.378906 137.96875 148.855469 138.042969 C 148.59375 138.082031 148.332031 138.128906 148.082031 138.214844 C 147.835938 138.300781 147.59375 138.417969 147.390625 138.605469 C 147.664062 138.601562 147.914062 138.574219 148.164062 138.539062 C 148.410156 138.507812 148.65625 138.457031 148.902344 138.433594 Z M 156.789062 147.226562 C 156.820312 147.230469 156.832031 147.210938 156.851562 147.203125 C 156.890625 147.183594 156.921875 147.15625 156.945312 147.121094 C 156.972656 147.089844 156.992188 147.050781 157.011719 147.015625 L 157.039062 146.957031 C 157.050781 146.9375 157.058594 146.917969 157.011719 146.839844 C 156.992188 146.8125 156.96875 146.78125 156.933594 146.761719 C 156.859375 146.714844 156.835938 146.722656 156.820312 146.734375 L 156.761719 146.765625 C 156.722656 146.785156 156.683594 146.804688 156.652344 146.828125 C 156.621094 146.855469 156.59375 146.886719 156.574219 146.921875 C 156.5625 146.945312 156.546875 146.957031 156.550781 146.988281 C 156.554688 147.019531 156.574219 147.070312 156.625 147.148438 C 156.707031 147.203125 156.753906 147.222656 156.789062 147.226562 Z M 156.777344 146.382812 C 156.824219 146.351562 156.863281 146.316406 156.898438 146.277344 C 156.929688 146.234375 156.960938 146.191406 156.988281 146.144531 L 157.027344 146.074219 C 157.042969 146.050781 157.054688 146.027344 157.011719 145.945312 C 156.996094 145.914062 156.96875 145.886719 156.933594 145.867188 C 156.855469 145.824219 156.828125 145.835938 156.808594 145.851562 L 156.738281 145.894531 C 156.691406 145.921875 156.644531 145.949219 156.601562 145.984375 C 156.5625 146.015625 156.527344 146.058594 156.496094 146.101562 C 156.484375 146.125 156.464844 146.144531 156.460938 146.179688 C 156.460938 146.214844 156.476562 146.269531 156.527344 146.355469 C 156.613281 146.402344 156.664062 146.417969 156.699219 146.417969 C 156.738281 146.414062 156.753906 146.394531 156.777344 146.382812 Z M 155.933594 139.214844 C 155.992188 139.113281 156.027344 139 156.078125 138.894531 C 156.175781 138.683594 156.285156 138.480469 156.402344 138.289062 C 156.527344 138.101562 156.664062 137.925781 156.832031 137.789062 C 156.914062 137.722656 157.003906 137.667969 157.105469 137.625 C 157.203125 137.585938 157.300781 137.558594 157.410156 137.464844 L 157.414062 137.460938 C 157.421875 137.457031 157.425781 137.453125 157.429688 137.445312 C 157.449219 137.414062 157.4375 137.375 157.40625 137.355469 C 157.277344 137.273438 157.128906 137.289062 157 137.332031 C 156.867188 137.371094 156.742188 137.429688 156.628906 137.503906 C 156.394531 137.648438 156.210938 137.847656 156.058594 138.058594 C 155.910156 138.273438 155.796875 138.507812 155.714844 138.75 C 155.671875 138.867188 155.625 138.988281 155.613281 139.113281 C 155.597656 139.242188 155.605469 139.378906 155.675781 139.519531 C 155.800781 139.421875 155.875 139.320312 155.933594 139.214844 Z M 155.113281 146.058594 L 155.113281 146.050781 C 155.113281 146.015625 155.128906 145.980469 155.152344 145.957031 C 155.214844 145.890625 155.257812 145.898438 155.292969 145.910156 C 155.332031 145.921875 155.367188 145.9375 155.40625 145.953125 C 155.476562 145.980469 155.546875 146.023438 155.609375 146.074219 C 155.667969 146.128906 155.71875 146.191406 155.753906 146.265625 C 155.769531 146.300781 155.792969 146.332031 155.792969 146.378906 C 155.789062 146.402344 155.78125 146.429688 155.765625 146.457031 C 155.757812 146.472656 155.75 146.484375 155.734375 146.5 C 155.71875 146.519531 155.707031 146.53125 155.6875 146.550781 C 155.585938 146.554688 155.53125 146.554688 155.496094 146.542969 C 155.476562 146.535156 155.464844 146.527344 155.457031 146.515625 C 155.449219 146.507812 155.4375 146.496094 155.429688 146.488281 C 155.390625 146.449219 155.351562 146.414062 155.320312 146.371094 C 155.285156 146.332031 155.25 146.289062 155.210938 146.246094 C 155.191406 146.226562 155.171875 146.207031 155.152344 146.1875 C 155.128906 146.171875 155.109375 146.152344 155.113281 146.058594"/></g><g fill="#FFC1B2" fill-opacity=".302"><use x="182.796" y="161.94" xmlns:xlink="http://www.w3.org/1999/xlink" xlink:href="#e" xlink:type="simple" xlink:actuate="onLoad" xlink:show="embed"/></g><g fill="#FFC1B2" fill-opacity=".302"><use x="200.006" y="161.94" xmlns:xlink="http://www.w3.org/1999/xlink" xlink:href="#f" xlink:type="simple" xlink:actuate="onLoad" xlink:show="embed"/></g><g fill="#FFC1B2" fill-opacity=".302"><use x="213.131" y="161.94" xmlns:xlink="http://www.w3.org/1999/xlink" xlink:href="#g" xlink:type="simple" xlink:actuate="onLoad" xlink:show="embed"/></g><g fill="#FFC1B2" fill-opacity=".302"><use x="221.526" y="161.94" xmlns:xlink="http://www.w3.org/1999/xlink" xlink:href="#h" xlink:type="simple" xlink:actuate="onLoad" xlink:show="embed"/></g><g fill="#FFC1B2" fill-opacity=".302"><use x="232.16" y="161.94" xmlns:xlink="http://www.w3.org/1999/xlink" xlink:href="#i" xlink:type="simple" xlink:actuate="onLoad" xlink:show="embed"/></g><g fill="#FFC1B2" fill-opacity=".302"><use x="245.117" y="161.94" xmlns:xlink="http://www.w3.org/1999/xlink" xlink:href="#j" xlink:type="simple" xlink:actuate="onLoad" xlink:show="embed"/></g><g fill="#FFC1B2" fill-opacity=".302"><use x="258.046" y="161.94" xmlns:xlink="http://www.w3.org/1999/xlink" xlink:href="#k" xlink:type="simple" xlink:actuate="onLoad" xlink:show="embed"/></g><g fill="#FFC1B2" fill-opacity=".302"><use x="264.958" y="161.94" xmlns:xlink="http://www.w3.org/1999/xlink" xlink:href="#l" xlink:type="simple" xlink:actuate="onLoad" xlink:show="embed"/></g><g fill="#FFC1B2" fill-opacity=".302"><use x="278.544" y="161.94" xmlns:xlink="http://www.w3.org/1999/xlink" xlink:href="#m" xlink:type="simple" xlink:actuate="onLoad" xlink:show="embed"/></g><g fill="#FFC1B2" fill-opacity=".502"><use x="183.166" y="162.097" xmlns:xlink="http://www.w3.org/1999/xlink" xlink:href="#e" xlink:type="simple" xlink:actuate="onLoad" xlink:show="embed"/></g><g fill="#FFC1B2" fill-opacity=".502"><use x="200.377" y="162.097" xmlns:xlink="http://www.w3.org/1999/xlink" xlink:href="#f" xlink:type="simple" xlink:actuate="onLoad" xlink:show="embed"/></g><g fill="#FFC1B2" fill-opacity=".502"><use x="213.501" y="162.097" xmlns:xlink="http://www.w3.org/1999/xlink" xlink:href="#g" xlink:type="simple" xlink:actuate="onLoad" xlink:show="embed"/></g><g fill="#FFC1B2" fill-opacity=".502"><use x="221.897" y="162.097" xmlns:xlink="http://www.w3.org/1999/xlink" xlink:href="#h" xlink:type="simple" xlink:actuate="onLoad" xlink:show="embed"/></g><g fill="#FFC1B2" fill-opacity=".502"><use x="232.531" y="162.097" xmlns:xlink="http://www.w3.org/1999/xlink" xlink:href="#i" xlink:type="simple" xlink:actuate="onLoad" xlink:show="embed"/></g><g fill="#FFC1B2" fill-opacity=".502"><use x="245.487" y="162.097" xmlns:xlink="http://www.w3.org/1999/xlink" xlink:href="#j" xlink:type="simple" xlink:actuate="onLoad" xlink:show="embed"/></g><g fill="#FFC1B2" fill-opacity=".502"><use x="258.416" y="162.097" xmlns:xlink="http://www.w3.org/1999/xlink" xlink:href="#k" xlink:type="simple" xlink:actuate="onLoad" xlink:show="embed"/></g><g fill="#FFC1B2" fill-opacity=".502"><use x="265.328" y="162.097" xmlns:xlink="http://www.w3.org/1999/xlink" xlink:href="#l" xlink:type="simple" xlink:actuate="onLoad" xlink:show="embed"/></g><g fill="#FFC1B2" fill-opacity=".502"><use x="278.915" y="162.097" xmlns:xlink="http://www.w3.org/1999/xlink" xlink:href="#m" xlink:type="simple" xlink:actuate="onLoad" xlink:show="embed"/></g><g fill="#FFFAEF"><use x="183.537" y="162.254" xmlns:xlink="http://www.w3.org/1999/xlink" xlink:href="#e" xlink:type="simple" xlink:actuate="onLoad" xlink:show="embed"/></g><g fill="#FFFAEF"><use x="200.747" y="162.254" xmlns:xlink="http://www.w3.org/1999/xlink" xlink:href="#f" xlink:type="simple" xlink:actuate="onLoad" xlink:show="embed"/></g><g fill="#FFFAEF"><use x="213.872" y="162.254" xmlns:xlink="http://www.w3.org/1999/xlink" xlink:href="#g" xlink:type="simple" xlink:actuate="onLoad" xlink:show="embed"/></g><g fill="#FFFAEF"><use x="222.267" y="162.254" xmlns:xlink="http://www.w3.org/1999/xlink" xlink:href="#h" xlink:type="simple" xlink:actuate="onLoad" xlink:show="embed"/></g><g fill="#FFFAEF"><use x="232.901" y="162.254" xmlns:xlink="http://www.w3.org/1999/xlink" xlink:href="#i" xlink:type="simple" xlink:actuate="onLoad" xlink:show="embed"/></g><g fill="#FFFAEF"><use x="245.858" y="162.254" xmlns:xlink="http://www.w3.org/1999/xlink" xlink:href="#j" xlink:type="simple" xlink:actuate="onLoad" xlink:show="embed"/></g><g fill="#FFFAEF"><use x="258.787" y="162.254" xmlns:xlink="http://www.w3.org/1999/xlink" xlink:href="#k" xlink:type="simple" xlink:actuate="onLoad" xlink:show="embed"/></g><g fill="#FFFAEF"><use x="265.699" y="162.254" xmlns:xlink="http://www.w3.org/1999/xlink" xlink:href="#l" xlink:type="simple" xlink:actuate="onLoad" xlink:show="embed"/></g><g fill="#FFFAEF"><use x="279.285" y="162.254" xmlns:xlink="http://www.w3.org/1999/xlink" xlink:href="#m" xlink:type="simple" xlink:actuate="onLoad" xlink:show="embed"/></g></svg>